<?xml version='1.0' encoding='utf-8'?>
<svg xmlns="http://www.w3.org/2000/svg" viewBox="0 0 186.67 480"> <g fill-rule="evenodd" stroke="#000" stroke-width="1.25"> <g fill="#fff"> <path d="m80.464 50.062c2.8791 5.7583 1.2413 10.696 0.52147 16.454-7.4748 6.9985-25.394 2.0828-29.207 8.332-7.947 12.037-38.452 49.292-38.696 60.196 0.29166 9.586 20.009 44.252 31.402 56.013 2.7118 0.59918 6.1945 1.0313 7.9164-0.38623 2.342-6.1717 1.7843-5.6597 3.8584-14.336-1.4451-2.4792-2.3641 2.0636-6.0874 1.6436-5.7904-7.0345-16.866-34.741-17.953-41.362 5.2664-9.5214 16.998-20.688 25.913-34.71 7.15 11.542-8.0105 16.288 4.8906 24.283 1.225 11.296 2.3367 29.649 1.1647 35.154-30.456 39.949 0.87827 133.85 1.875 146.31-8.5116 29.001 8.0426 89.356 8.4413 94.915-0.42813 5.1455-3.4908 9.7644-1.5456 12.95-2.6022 11.04-5.3208 15.44-3.1615 21.918 2.1594 6.478 17.766 8.094 20.767 4.0964 0.93383-6.0646-0.60759-21.374-2.767-24.253 1.1479-2.4657 2.5413-11.11 0.19728-18.522-2.7574-9.4789 5.8245-63.068-0.7753-78.043 0.84153-3.3996 2.1728-14.491 2.1875-19.438-0.80453-2.9757 0.47952-35.1 2-60.188 1.5264 25.115 2.8068 57.422 2 60.406-2.8791 2.8791 0.10575 16.451 2.1875 19.438-2.0523 6.2934 3.6357 68.564 7.9062 75.562-2.344 7.4119 0.28959 14.816 1.4375 17.281-2.1594 2.8792-4.5276 19.842-3.5938 25.906 3.0009 3.9976 19.434 0.72803 21.594-5.75 2.1594-6.4781-3.8666-8.3972-6.4688-19.438 1.9453-3.1855-0.32187-10.698-0.75-15.844 0.3987-5.5589 9.5429-61.78 1.0312-90.781 0.99673-12.465 29.023-107.6 1.875-146.31-1.172-5.5054 0.052147-26.904 1.6389-38.2 9.9631-4.696-2.0481-13.757 4.8298-21.237 1.057 8.7625 3.9411 46.657 8.625 59-3.1708 15.237 2.1604 58.306-0.71875 62.625-2.8791 4.3187-3.8854 15.288-3.5938 20.156 3.5989-2.1594 4.28-5.0039 6.4688-3.5938 2.6022 5.1308-8.2831 10.578-8.3125 15.125 5.7583 0 18.961-6.8065 14.812-30.969-0.014725-9.693 12.716-62.592 5.0312-75.562 2.6504-8.4233-4.2905-60.148-9.3438-70.531-3.813-6.2493-24.213-3.814-31.688-10.812-0.71979-5.7583-3.5979-11.523-0.71875-17.281 6.4781-9.3572 6.7095-40.117-11.312-40.281-23.263 0.01308-20.358 30.705-13.88 40.062z" stroke-linejoin="round"/> <g fill-opacity=".75"> <path d="m63.157 126.08c4.54 1.4726 13.896 0.051361 18.922-4.3365"/> <path d="m104.21 120.22c4.1994 6.1936 12.468 4.0977 16.442 3.0674"/> </g> </g> <path d="m92.565 3.7162c-7.1049-0.35524-14.096 2.3556-16.938 8.75-7.1049 16.104-6.1545 37.905-3.3125 44.062 1.7016-0.26178 5.233-0.78185 9.375-1.3125-0.20704-1.5756-0.60054-3.1698-1.4375-4.8438-3.239-4.6786-5.586-14.691-4.2154-23.535 1.3706-8.8443 31.549-8.7138 32.934 0.16624 1.3851 8.8801-0.29223 18.909-3.5313 23.588-0.60026 1.2005-0.8285 2.3928-1 3.5938 3.5476 0.40157 6.3395 1.2563 7.6562 2.8125 3.3156-8.0522 3.8089-32.195-1.875-43.562-3.3156-5.9208-10.551-9.3635-17.656-9.7188z" fill="#bfbfbf"/> </g> </svg>