<?xml version='1.0' encoding='utf-8'?>
<svg xmlns:xlink="http://www.w3.org/1999/xlink" xmlns="http://www.w3.org/2000/svg" viewBox="0 0 270 648"> <g transform="translate(387.5 -8.9641)"> <g id="a"> <path d="m-252 12c10.361 0.54534 35.199-2.966 22.667 64-12.436 66.454 61.42 18.443 73.06 66.258 3.8317 15.74-2.3934 41.742-2.3934 41.742s4.8155 21.994 2.6667 41.333c-0.79012 7.1111-11.511 35.655-10.815 42.963 0.5176 5.4327 5.2223 25.252 5.0864 39.259-0.11359 11.709-3.9709 35.131-4.353 44.022-0.2244 5.2208 5.1898 37.63 4.5011 43.632-0.5006 4.3636-14.194 27.756-16.543 25.877-1.9753-1.5802 7.0617-25.926 7.4568-29.086 0.49001-3.9201-4.7465-17.43-6.6667-17.333-3.2042 0.13822 0.23909 24.966-2.6667 24.966-2.5425 0-9.2138-15.398-9.2138-22.299 0-5.8115 5.4669-20.399 5.2138-29.333-0.4424-15.614-9.7125-35.053-10.184-50.667-0.28181-9.3338 1.7548-21.722 1.3379-31.03-0.59092-13.194-5.8207-43.637-5.8207-43.637s-7.6268 31.528-8 45.333c-0.71857 26.584 10.95 61.408 10.667 88-0.48135 45.252 14.816 49.741-4.9821 149.33 5.7832 12.722 5.9027 35.375 3.3977 48.726-3.8788 20.674-14.552 47.612-16.731 63.274 5.0851 14.529 27.389 36.726 15.039 36 0 0-32.063 1.3384-36.372 0-3.5575-1.1049 2.3216-13.603 1.4976-35.59-0.62134-16.578-6.5767-39.673-6.666-61.97-0.051-13.559-1.3133-21.729 4.9543-50.003-16.385-72.049-16.137-123.42-16.137-123.42" fill="none" stroke="#000" stroke-linecap="square"/> <path d="m-199.48 225.32c1.5118 0 8.394-55.594 0-55.594" fill="none" stroke="#000"/> <path d="m-252.03 107.39c9.0308-0.16894 19.152-15.081 22.047-27.588" fill="none" stroke="#000" stroke-linecap="square"/> </g> <use transform="matrix(-1 0 0 1 -505 0)" width="270" height="648" xlink:href="#a"/> </g> </svg>